# Blender v2.79 (sub 0) OBJ File: 'teapot_n_glass.blend'
# www.blender.org
o Cylinder.001_Cylinder.007
v -0.910591 0.180281 -1.074189
v -0.912454 0.156780 -0.754834
v -0.903492 0.179682 -1.074192
v -0.905355 0.156182 -0.754837
v -0.896500 0.180145 -1.074117
v -0.898363 0.156644 -0.754762
v -0.889884 0.181651 -1.073967
v -0.891747 0.158151 -0.754613
v -0.883897 0.184143 -1.073749
v -0.885760 0.160643 -0.754395
v -0.878770 0.187526 -1.073470
v -0.880634 0.164025 -0.754116
v -0.874701 0.191668 -1.073142
v -0.876564 0.168168 -0.753787
v -0.871844 0.196411 -1.072776
v -0.873707 0.172911 -0.753421
v -0.870310 0.201573 -1.072387
v -0.872174 0.178073 -0.753033
v -0.870159 0.206956 -1.071990
v -0.872022 0.183456 -0.752636
v -0.871395 0.212351 -1.071600
v -0.873258 0.188851 -0.752246
v -0.873972 0.217553 -1.071233
v -0.875835 0.194053 -0.751878
v -0.877790 0.222361 -1.070901
v -0.879653 0.198861 -0.751547
v -0.882702 0.226590 -1.070619
v -0.884565 0.203090 -0.751264
v -0.888520 0.230078 -1.070396
v -0.890384 0.206578 -0.751041
v -0.895021 0.232691 -1.070241
v -0.896884 0.209191 -0.750887
v -0.901954 0.234329 -1.070161
v -0.903817 0.210828 -0.750807
v -0.909053 0.234927 -1.070159
v -0.910916 0.211427 -0.750804
v -0.916045 0.234465 -1.070234
v -0.917908 0.210965 -0.750879
v -0.922661 0.232958 -1.070383
v -0.924524 0.209458 -0.751029
v -0.928648 0.230466 -1.070601
v -0.930511 0.206966 -0.751247
v -0.933774 0.227084 -1.070880
v -0.935638 0.203583 -0.751526
v -0.937844 0.222941 -1.071209
v -0.939707 0.199441 -0.751854
v -0.940701 0.218198 -1.071574
v -0.942564 0.194698 -0.752220
v -0.942234 0.213036 -1.071963
v -0.944098 0.189536 -0.752609
v -0.942386 0.207654 -1.072360
v -0.944249 0.184153 -0.753006
v -0.941149 0.202258 -1.072750
v -0.943013 0.178758 -0.753396
v -0.938573 0.197056 -1.073118
v -0.940436 0.173556 -0.753763
v -0.934755 0.192248 -1.073449
v -0.936618 0.168748 -0.754095
v -0.929842 0.188019 -1.073732
v -0.931706 0.164519 -0.754377
v -0.924024 0.184531 -1.073955
v -0.925887 0.161031 -0.754600
v -0.917524 0.181918 -1.074109
v -0.919387 0.158418 -0.754754
vn -0.0839 -0.9938 -0.0736
vn 0.0666 -0.9951 -0.0728
vn 0.2230 -0.9723 -0.0702
vn 0.3856 -0.9204 -0.0655
vn 0.5520 -0.8319 -0.0580
vn 0.7144 -0.6981 -0.0472
vn 0.8573 -0.5138 -0.0328
vn 0.9588 -0.2837 -0.0153
vn 0.9996 -0.0284 0.0037
vn 0.9748 0.2218 0.0220
vn 0.8965 0.4414 0.0377
vn 0.7838 0.6190 0.0501
vn 0.6532 0.7548 0.0594
vn 0.5149 0.8547 0.0659
vn 0.3735 0.9250 0.0702
vn 0.2300 0.9705 0.0728
vn 0.0839 0.9938 0.0736
vn -0.0666 0.9951 0.0728
vn -0.2230 0.9723 0.0702
vn -0.3855 0.9204 0.0655
vn -0.5520 0.8318 0.0580
vn -0.7144 0.6981 0.0472
vn -0.8573 0.5138 0.0328
vn -0.9588 0.2837 0.0153
vn -0.9996 0.0284 -0.0037
vn -0.9748 -0.2218 -0.0220
vn -0.8965 -0.4414 -0.0377
vn -0.7838 -0.6190 -0.0501
vn -0.6532 -0.7548 -0.0594
vn -0.5149 -0.8547 -0.0659
vn -0.3735 -0.9250 -0.0702
vn -0.2300 -0.9705 -0.0728
vn 0.3855 -0.9204 -0.0655
vn 0.5520 -0.8318 -0.0580
vn -0.9749 -0.2218 -0.0220
vn -0.6533 -0.7548 -0.0594
s off
f 2//1 1//1 3//1
f 4//2 3//2 5//2
f 6//3 5//3 7//3
f 8//4 7//4 9//4
f 10//5 9//5 11//5
f 12//6 11//6 13//6
f 14//7 13//7 15//7
f 16//8 15//8 17//8
f 18//9 17//9 19//9
f 20//10 19//10 21//10
f 22//11 21//11 23//11
f 24//12 23//12 25//12
f 26//13 25//13 27//13
f 28//14 27//14 29//14
f 30//15 29//15 31//15
f 32//16 31//16 33//16
f 34//17 33//17 35//17
f 36//18 35//18 37//18
f 38//19 37//19 39//19
f 40//20 39//20 41//20
f 42//21 41//21 43//21
f 44//22 43//22 45//22
f 46//23 45//23 47//23
f 48//24 47//24 49//24
f 50//25 49//25 51//25
f 52//26 51//26 53//26
f 54//27 53//27 55//27
f 56//28 55//28 57//28
f 58//29 57//29 59//29
f 60//30 59//30 61//30
f 62//31 61//31 63//31
f 64//32 63//32 1//32
f 2//1 3//1 4//1
f 4//2 5//2 6//2
f 6//3 7//3 8//3
f 8//33 9//33 10//33
f 10//34 11//34 12//34
f 12//6 13//6 14//6
f 14//7 15//7 16//7
f 16//8 17//8 18//8
f 18//9 19//9 20//9
f 20//10 21//10 22//10
f 22//11 23//11 24//11
f 24//12 25//12 26//12
f 26//13 27//13 28//13
f 28//14 29//14 30//14
f 30//15 31//15 32//15
f 32//16 33//16 34//16
f 34//17 35//17 36//17
f 36//18 37//18 38//18
f 38//19 39//19 40//19
f 40//20 41//20 42//20
f 42//21 43//21 44//21
f 44//22 45//22 46//22
f 46//23 47//23 48//23
f 48//24 49//24 50//24
f 50//25 51//25 52//25
f 52//35 53//35 54//35
f 54//27 55//27 56//27
f 56//28 57//28 58//28
f 58//36 59//36 60//36
f 60//30 61//30 62//30
f 62//31 63//31 64//31
f 64//32 1//32 2//32
