# Blender v2.79 (sub 0) OBJ File: 'teapot_n_glass.blend'
# www.blender.org
o Cylinder.003_Cylinder.009
v -1.406429 0.099135 -0.787209
v -1.144709 0.113947 -0.468795
v -1.403415 0.100744 -0.789761
v -1.141695 0.115556 -0.471346
v -1.400777 0.103528 -0.792059
v -1.139057 0.118340 -0.473644
v -1.398615 0.107380 -0.794015
v -1.136895 0.122192 -0.475600
v -1.397014 0.112151 -0.795554
v -1.135293 0.126964 -0.477139
v -1.396033 0.117660 -0.796616
v -1.134313 0.132472 -0.478201
v -1.395712 0.123693 -0.797161
v -1.133991 0.138505 -0.478746
v -1.396062 0.130018 -0.797167
v -1.134341 0.144831 -0.478753
v -1.397069 0.136394 -0.796636
v -1.135349 0.151207 -0.478221
v -1.398696 0.142575 -0.795586
v -1.136976 0.157387 -0.477171
v -1.400880 0.148322 -0.794058
v -1.139160 0.163135 -0.475644
v -1.403536 0.153417 -0.792112
v -1.141816 0.168229 -0.473697
v -1.406564 0.157661 -0.789821
v -1.144843 0.172474 -0.471406
v -1.409845 0.160894 -0.787274
v -1.148125 0.175706 -0.468860
v -1.413254 0.162990 -0.784569
v -1.151534 0.177802 -0.466155
v -1.416661 0.163868 -0.781810
v -1.154941 0.178681 -0.463395
v -1.419935 0.163496 -0.779102
v -1.158214 0.178308 -0.460688
v -1.422948 0.161886 -0.776551
v -1.161228 0.176699 -0.458136
v -1.425586 0.159102 -0.774252
v -1.163866 0.173915 -0.455838
v -1.427748 0.155250 -0.772297
v -1.166028 0.170063 -0.453882
v -1.429350 0.150479 -0.770758
v -1.167629 0.165291 -0.452343
v -1.430330 0.144971 -0.769696
v -1.168610 0.159783 -0.451281
v -1.430652 0.138938 -0.769151
v -1.168931 0.153750 -0.450736
v -1.430302 0.132612 -0.769144
v -1.168582 0.147424 -0.450730
v -1.429294 0.126236 -0.769676
v -1.167574 0.141049 -0.451261
v -1.427667 0.120056 -0.770726
v -1.165947 0.134868 -0.452311
v -1.425483 0.114308 -0.772253
v -1.163763 0.129120 -0.453839
v -1.422827 0.109214 -0.774200
v -1.161107 0.124026 -0.455785
v -1.419800 0.104969 -0.776490
v -1.158080 0.119781 -0.458076
v -1.416518 0.101736 -0.779037
v -1.154798 0.116549 -0.460622
v -1.413109 0.099641 -0.781742
v -1.151389 0.114453 -0.463327
v -1.409702 0.098762 -0.784502
v -1.147982 0.113575 -0.466087
vn 0.3128 -0.9254 -0.2141
vn 0.4992 -0.7817 -0.3739
vn 0.6302 -0.6024 -0.4899
vn 0.7104 -0.4205 -0.5644
vn 0.7534 -0.2513 -0.6076
vn 0.7710 -0.0979 -0.6292
vn 0.7709 0.0420 -0.6356
vn 0.7570 0.1722 -0.6303
vn 0.7309 0.2968 -0.6146
vn 0.6918 0.4191 -0.5881
vn 0.6368 0.5417 -0.5486
vn 0.5610 0.6657 -0.4921
vn 0.4568 0.7884 -0.4121
vn 0.3148 0.9003 -0.3006
vn 0.1295 0.9799 -0.1520
vn -0.0902 0.9955 0.0279
vn -0.3128 0.9254 0.2141
vn -0.4992 0.7817 0.3739
vn -0.6301 0.6024 0.4899
vn -0.7104 0.4204 0.5644
vn -0.7534 0.2513 0.6076
vn -0.7710 0.0979 0.6292
vn -0.7709 -0.0420 0.6356
vn -0.7570 -0.1722 0.6303
vn -0.7309 -0.2968 0.6146
vn -0.6918 -0.4191 0.5881
vn -0.6368 -0.5417 0.5486
vn -0.5610 -0.6657 0.4921
vn -0.4568 -0.7884 0.4121
vn -0.3148 -0.9003 0.3006
vn -0.1295 -0.9799 0.1520
vn 0.0902 -0.9955 -0.0279
vn 0.6301 -0.6024 -0.4899
vn 0.7104 -0.4204 -0.5644
vn 0.7709 0.0419 -0.6356
vn 0.7570 0.1723 -0.6303
vn 0.6917 0.4191 -0.5881
vn 0.5610 0.6656 -0.4921
vn 0.1295 0.9798 -0.1520
vn -0.0903 0.9955 0.0279
vn -0.7709 -0.0419 0.6356
vn -0.7570 -0.1723 0.6303
vn -0.6917 -0.4191 0.5881
vn -0.5610 -0.6656 0.4921
vn -0.3148 -0.9003 0.3007
vn -0.1295 -0.9798 0.1520
s off
f 2//1 1//1 3//1
f 4//2 3//2 5//2
f 6//3 5//3 7//3
f 8//4 7//4 9//4
f 10//5 9//5 11//5
f 12//6 11//6 13//6
f 14//7 13//7 15//7
f 16//8 15//8 17//8
f 18//9 17//9 19//9
f 20//10 19//10 21//10
f 22//11 21//11 23//11
f 24//12 23//12 25//12
f 26//13 25//13 27//13
f 28//14 27//14 29//14
f 30//15 29//15 31//15
f 32//16 31//16 33//16
f 34//17 33//17 35//17
f 36//18 35//18 37//18
f 38//19 37//19 39//19
f 40//20 39//20 41//20
f 42//21 41//21 43//21
f 44//22 43//22 45//22
f 46//23 45//23 47//23
f 48//24 47//24 49//24
f 50//25 49//25 51//25
f 52//26 51//26 53//26
f 54//27 53//27 55//27
f 56//28 55//28 57//28
f 58//29 57//29 59//29
f 60//30 59//30 61//30
f 62//31 61//31 63//31
f 64//32 63//32 1//32
f 2//1 3//1 4//1
f 4//2 5//2 6//2
f 6//33 7//33 8//33
f 8//34 9//34 10//34
f 10//5 11//5 12//5
f 12//6 13//6 14//6
f 14//35 15//35 16//35
f 16//36 17//36 18//36
f 18//9 19//9 20//9
f 20//37 21//37 22//37
f 22//11 23//11 24//11
f 24//38 25//38 26//38
f 26//13 27//13 28//13
f 28//14 29//14 30//14
f 30//39 31//39 32//39
f 32//40 33//40 34//40
f 34//17 35//17 36//17
f 36//18 37//18 38//18
f 38//19 39//19 40//19
f 40//20 41//20 42//20
f 42//21 43//21 44//21
f 44//22 45//22 46//22
f 46//41 47//41 48//41
f 48//42 49//42 50//42
f 50//25 51//25 52//25
f 52//43 53//43 54//43
f 54//27 55//27 56//27
f 56//44 57//44 58//44
f 58//29 59//29 60//29
f 60//45 61//45 62//45
f 62//46 63//46 64//46
f 64//32 1//32 2//32
